# xmcd
#
# Track frame offsets:
#	150
#	11520
#	25757
#	38384
#	52425
#	66363
#	79658
#	94848
#	107220
#	121181
#	135293
#	147595
#	158886
#	173664
#	187200
#	199932
#	212013
#	224734
#	237386
#	250368
#	261690
#	276037
#	289183
#	301487
#	314029
#	327742
#	341062
#
# Disc length: 4695 seconds
#
# Revision: 3
# Processed by: cddbd v1.5.2PL0 Copyright (c) Steve Scherf et al.
# Submitted via: EasyCDDAExtractor 16.0.1.1
#
DISCID=b412551b
DTITLE=Cliff Bruner and His Texas Wanderers - Cliff Bruner and His Texas Wanderers
DTITLE=1
DYEAR=1937
DGENRE=Western Swing
TTITLE0=So Tired
TTITLE1=Milk Cow Blues [1937}
TTITLE2=The Right Key (But The Wrong Keyhole)
TTITLE3=You've Got To Hi De Hi
TTITLE4=In The Blue Of The Night
TTITLE5=Shine
TTITLE6=Can't Nobody Truck Like Me
TTITLE7=Bringin' Home The Bacon
TTITLE8=Under The Silvery Moon
TTITLE9=Corrine  Corrina
TTITLE10=Four Or Five Times
TTITLE11=Oh You Pretty Woman
TTITLE12=I Ain't Gonna Give Nobody None O' This Jelly Roll
TTITLE13=Old Fashioned Love
TTITLE14=Oh How I Miss You Tonight
TTITLE15=One Sweet Letter From You
TTITLE16=Dream Train
TTITLE17=Sunbonnet Sue
TTITLE18=To-Night You Belong To Me
TTITLE19=By A Window At The End Of The Lane
TTITLE20=Girl Of My Dreams
TTITLE21=I Saw Your Face In The Moon
TTITLE22=Red Lips- Kiss My Blues Away
TTITLE23=You Can Depend On Me
TTITLE24=In The Blue Of The Night (Alt)
TTITLE25=Shine (Alt)
TTITLE26=Can't Nobody Truck Like Me (Alt)
EXTD=
EXTT0=
EXTT1=
EXTT2=
EXTT3=
EXTT4=
EXTT5=
EXTT6=
EXTT7=
EXTT8=
EXTT9=
EXTT10=
EXTT11=
EXTT12=
EXTT13=
EXTT14=
EXTT15=
EXTT16=
EXTT17=
EXTT18=
EXTT19=
EXTT20=
EXTT21=
EXTT22=
EXTT23=
EXTT24=
EXTT25=
EXTT26=
PLAYORDER=
